<svg version="1.1" id="Layer_1" xmlns="http://www.w3.org/2000/svg" xmlns:xlink="http://www.w3.org/1999/xlink" x="0px" y="0px"
	 width="100%" viewBox="0 0 512 512" enable-background="new 0 0 512 512" xml:space="preserve">
<path fill="#555555" opacity="1.000000" stroke="none" 
	d="
M225.000000,1.000001 
	C246.020889,1.000000 267.041779,1.000000 288.516357,1.408384 
	C289.644135,2.196485 290.275696,2.765044 290.998688,2.928132 
	C306.547821,6.435586 322.403381,8.930139 337.598999,13.582526 
	C364.137299,21.707655 388.354858,34.849316 410.663361,51.394421 
	C427.245514,63.692566 441.997375,78.025116 455.115204,93.865372 
	C469.465942,111.194389 481.308960,130.198730 490.509857,150.859650 
	C499.821442,171.769135 506.729614,193.306427 510.108154,215.974289 
	C510.567749,219.058029 512.011780,221.995056 513.000000,225.000000 
	C513.000000,246.020889 513.000000,267.041779 512.591614,288.516296 
	C511.803467,289.644135 511.234833,290.275726 511.071716,290.998810 
	C507.564240,306.547913 505.069672,322.403473 500.417358,337.599121 
	C492.292358,364.137482 479.172638,388.371429 462.598175,410.657990 
	C450.283478,427.216766 436.003937,442.021545 420.139526,455.120850 
	C402.789185,469.447144 383.801208,481.308990 363.140320,490.509827 
	C342.230865,499.821381 320.693634,506.729858 298.025696,510.108124 
	C294.941956,510.567657 292.004944,512.011780 289.000000,513.000000 
	C267.979095,513.000000 246.958206,513.000000 225.483673,512.591614 
	C224.355927,511.803497 223.724442,511.234924 223.001465,511.071869 
	C207.452332,507.564423 191.596771,505.069855 176.401123,500.417480 
	C149.862808,492.292389 125.628746,479.172760 103.342155,462.598297 
	C86.783386,450.283600 71.979561,436.003387 58.879467,420.139557 
	C44.552197,402.789581 32.691872,383.800751 23.490356,363.140320 
	C14.178053,342.231171 7.270310,320.693665 3.891904,298.025757 
	C3.432303,294.941986 1.988244,292.004974 1.000002,289.000000 
	C1.000000,267.979095 1.000000,246.958206 1.408381,225.483688 
	C2.175330,224.520111 2.739189,224.055222 2.862418,223.493637 
	C5.894557,209.675018 8.409282,195.723236 11.980630,182.047012 
	C17.787325,159.810745 27.976868,139.419998 40.036041,119.955109 
	C54.400539,96.769150 72.529373,76.777374 93.347664,59.339165 
	C110.754021,44.758923 129.942978,32.848717 150.770355,23.540737 
	C171.697083,14.188354 193.267517,7.291378 215.960785,3.892890 
	C219.049011,3.430407 221.990540,1.988449 225.000000,1.000001 
M168.964539,225.482666 
	C174.308563,240.247955 185.184723,249.902771 198.360001,257.511475 
	C216.206528,267.817810 236.024048,272.102783 255.703842,277.150726 
	C273.526703,281.722382 291.536896,286.404358 308.451172,293.465149 
	C329.698883,302.334900 338.428497,318.469635 332.255676,345.753052 
	C327.852386,365.215393 312.921997,374.989594 295.253998,380.789886 
	C275.500122,387.274963 255.304001,387.387299 235.080414,382.843750 
	C200.258789,375.020508 181.872101,354.569946 177.671600,319.362000 
	C176.709488,311.297546 175.575790,303.224640 173.902634,295.285980 
	C173.046188,291.222504 170.169632,287.847229 165.422409,288.267609 
	C161.095245,288.650757 159.641968,292.278900 158.838699,296.038391 
	C158.457703,297.821503 157.971222,299.641205 157.988068,301.440094 
	C158.070694,310.263214 158.349258,319.084198 158.479065,327.907135 
	C158.735962,345.370392 158.918716,362.834747 159.177353,380.297943 
	C159.283081,387.437744 159.111282,394.614960 159.814346,401.700897 
	C160.285583,406.450226 164.006622,408.795715 168.715805,408.734283 
	C173.258728,408.674957 176.509491,406.289520 177.003738,401.661926 
	C177.831940,393.907257 178.221283,386.104065 178.713135,378.316101 
	C178.860947,375.975616 178.735977,373.617889 178.735977,371.716217 
	C182.188492,374.803375 185.261261,377.852295 188.649231,380.497437 
	C192.180481,383.254456 195.830765,385.959290 199.746872,388.107422 
	C235.744904,407.853638 273.099091,409.609772 310.951324,394.720978 
	C337.127563,384.424805 354.424133,366.126953 356.537811,336.530945 
	C358.633606,307.185974 350.221802,289.677948 325.463409,277.298828 
	C312.203491,270.668915 297.667999,266.338501 283.377014,262.082184 
	C262.517059,255.869431 241.172745,251.260513 220.383621,244.838974 
	C201.814316,239.103088 188.562958,227.477188 186.480225,206.665283 
	C185.935043,201.217499 185.816803,195.669296 186.130646,190.203278 
	C187.455627,167.126419 198.117905,150.583023 220.152573,141.942322 
	C235.201523,136.041016 250.736115,134.314438 266.716736,135.516357 
	C277.586426,136.333893 288.376312,137.972351 297.814819,143.699631 
	C320.032898,157.181503 329.156769,178.421356 332.222046,203.156876 
	C333.012543,209.535828 334.016602,216.001892 336.039703,222.054520 
	C336.773132,224.248703 340.820312,226.671021 343.264435,226.578751 
	C345.667450,226.488007 348.592438,223.752762 350.108398,221.413361 
	C351.534576,219.212448 351.849640,216.024414 351.918915,213.252335 
	C352.667908,183.276779 353.394836,153.299164 353.777985,123.317650 
	C353.833221,118.993988 352.498383,114.478439 350.972198,110.361061 
	C349.630371,106.740959 346.091278,105.674988 342.268280,105.890724 
	C338.358185,106.111366 336.251923,108.541595 335.103027,111.874443 
	C334.407745,113.891487 333.935089,116.095428 333.922333,118.218758 
	C333.863373,128.039551 334.002228,137.861511 334.066132,147.683090 
	C334.076874,149.332687 334.067657,150.982407 334.067657,152.632080 
	C332.108185,151.445389 331.258301,150.217590 330.337372,149.045609 
	C319.207397,134.881088 306.467926,122.865929 287.999298,119.283607 
	C264.027863,114.633904 240.328079,115.620926 217.037354,123.468475 
	C167.522293,140.152008 156.468658,184.999008 168.964539,225.482666 
z"/>
<path fill="#000000" opacity="1.000000" stroke="none" 
	d="
M224.531342,1.000001 
	C221.990540,1.988449 219.049011,3.430407 215.960785,3.892890 
	C193.267517,7.291378 171.697083,14.188354 150.770355,23.540737 
	C129.942978,32.848717 110.754021,44.758923 93.347664,59.339165 
	C72.529373,76.777374 54.400539,96.769150 40.036041,119.955109 
	C27.976868,139.419998 17.787325,159.810745 11.980630,182.047012 
	C8.409282,195.723236 5.894557,209.675018 2.862418,223.493637 
	C2.739189,224.055222 2.175330,224.520111 1.408381,225.015030 
	C1.000000,150.406296 1.000000,75.812576 1.000000,1.000000 
	C75.354088,1.000000 149.708389,1.000000 224.531342,1.000001 
z"/>
<path fill="#000000" opacity="1.000000" stroke="none" 
	d="
M513.000000,224.531342 
	C512.011780,221.995056 510.567749,219.058029 510.108154,215.974289 
	C506.729614,193.306427 499.821442,171.769135 490.509857,150.859650 
	C481.308960,130.198730 469.465942,111.194389 455.115204,93.865372 
	C441.997375,78.025116 427.245514,63.692566 410.663361,51.394421 
	C388.354858,34.849316 364.137299,21.707655 337.598999,13.582526 
	C322.403381,8.930139 306.547821,6.435586 290.998688,2.928132 
	C290.275696,2.765044 289.644135,2.196485 288.984985,1.408384 
	C363.593719,1.000000 438.187408,1.000000 513.000000,1.000000 
	C513.000000,75.354088 513.000000,149.708389 513.000000,224.531342 
z"/>
<path fill="#000000" opacity="1.000000" stroke="none" 
	d="
M1.000002,289.468658 
	C1.988244,292.004974 3.432303,294.941986 3.891904,298.025757 
	C7.270310,320.693665 14.178053,342.231171 23.490356,363.140320 
	C32.691872,383.800751 44.552197,402.789581 58.879467,420.139557 
	C71.979561,436.003387 86.783386,450.283600 103.342155,462.598297 
	C125.628746,479.172760 149.862808,492.292389 176.401123,500.417480 
	C191.596771,505.069855 207.452332,507.564423 223.001465,511.071869 
	C223.724442,511.234924 224.355927,511.803497 225.015015,512.591614 
	C150.406296,513.000000 75.812599,513.000000 1.000000,513.000000 
	C1.000000,438.645905 1.000000,364.291626 1.000002,289.468658 
z"/>
<path fill="#000000" opacity="1.000000" stroke="none" 
	d="
M289.468658,513.000000 
	C292.004944,512.011780 294.941956,510.567657 298.025696,510.108124 
	C320.693634,506.729858 342.230865,499.821381 363.140320,490.509827 
	C383.801208,481.308990 402.789185,469.447144 420.139526,455.120850 
	C436.003937,442.021545 450.283478,427.216766 462.598175,410.657990 
	C479.172638,388.371429 492.292358,364.137482 500.417358,337.599121 
	C505.069672,322.403473 507.564240,306.547913 511.071716,290.998810 
	C511.234833,290.275726 511.803467,289.644135 512.591614,288.984955 
	C513.000000,363.593719 513.000000,438.187408 513.000000,513.000000 
	C438.645905,513.000000 364.291626,513.000000 289.468658,513.000000 
z"/>
<path fill="#FDFDFD" opacity="1.000000" stroke="none" 
	d="
M168.858749,225.108337 
	C156.468658,184.999008 167.522293,140.152008 217.037354,123.468475 
	C240.328079,115.620926 264.027863,114.633904 287.999298,119.283607 
	C306.467926,122.865929 319.207397,134.881088 330.337372,149.045609 
	C331.258301,150.217590 332.108185,151.445389 334.067657,152.632080 
	C334.067657,150.982407 334.076874,149.332687 334.066132,147.683090 
	C334.002228,137.861511 333.863373,128.039551 333.922333,118.218758 
	C333.935089,116.095428 334.407745,113.891487 335.103027,111.874443 
	C336.251923,108.541595 338.358185,106.111366 342.268280,105.890724 
	C346.091278,105.674988 349.630371,106.740959 350.972198,110.361061 
	C352.498383,114.478439 353.833221,118.993988 353.777985,123.317650 
	C353.394836,153.299164 352.667908,183.276779 351.918915,213.252335 
	C351.849640,216.024414 351.534576,219.212448 350.108398,221.413361 
	C348.592438,223.752762 345.667450,226.488007 343.264435,226.578751 
	C340.820312,226.671021 336.773132,224.248703 336.039703,222.054520 
	C334.016602,216.001892 333.012543,209.535828 332.222046,203.156876 
	C329.156769,178.421356 320.032898,157.181503 297.814819,143.699631 
	C288.376312,137.972351 277.586426,136.333893 266.716736,135.516357 
	C250.736115,134.314438 235.201523,136.041016 220.152573,141.942322 
	C198.117905,150.583023 187.455627,167.126419 186.130646,190.203278 
	C185.816803,195.669296 185.935043,201.217499 186.480225,206.665283 
	C188.562958,227.477188 201.814316,239.103088 220.383621,244.838974 
	C241.172745,251.260513 262.517059,255.869431 283.377014,262.082184 
	C297.667999,266.338501 312.203491,270.668915 325.463409,277.298828 
	C350.221802,289.677948 358.633606,307.185974 356.537811,336.530945 
	C354.424133,366.126953 337.127563,384.424805 310.951324,394.720978 
	C273.099091,409.609772 235.744904,407.853638 199.746872,388.107422 
	C195.830765,385.959290 192.180481,383.254456 188.649231,380.497437 
	C185.261261,377.852295 182.188492,374.803375 178.735977,371.716217 
	C178.735977,373.617889 178.860947,375.975616 178.713135,378.316101 
	C178.221283,386.104065 177.831940,393.907257 177.003738,401.661926 
	C176.509491,406.289520 173.258728,408.674957 168.715805,408.734283 
	C164.006622,408.795715 160.285583,406.450226 159.814346,401.700897 
	C159.111282,394.614960 159.283081,387.437744 159.177353,380.297943 
	C158.918716,362.834747 158.735962,345.370392 158.479065,327.907135 
	C158.349258,319.084198 158.070694,310.263214 157.988068,301.440094 
	C157.971222,299.641205 158.457703,297.821503 158.838699,296.038391 
	C159.641968,292.278900 161.095245,288.650757 165.422409,288.267609 
	C170.169632,287.847229 173.046188,291.222504 173.902634,295.285980 
	C175.575790,303.224640 176.709488,311.297546 177.671600,319.362000 
	C181.872101,354.569946 200.258789,375.020508 235.080414,382.843750 
	C255.304001,387.387299 275.500122,387.274963 295.253998,380.789886 
	C312.921997,374.989594 327.852386,365.215393 332.255676,345.753052 
	C338.428497,318.469635 329.698883,302.334900 308.451172,293.465149 
	C291.536896,286.404358 273.526703,281.722382 255.703842,277.150726 
	C236.024048,272.102783 216.206528,267.817810 198.360001,257.511475 
	C185.184723,249.902771 174.308563,240.247955 168.858749,225.108337 
z"/>
</svg>